<svg width="106" height="32" viewBox="0 0 106 32" fill="none" xmlns="http://www.w3.org/2000/svg">
<g clip-path="url(#clip0_5505_8495)">
<path d="M33.469 18.3117V17.2984C33.469 16.8177 33.7679 16.578 34.3657 16.578C34.9635 16.578 35.2923 16.8177 35.2923 17.2984V18.1911C35.2923 18.4568 35.369 18.6978 35.5223 18.9129C35.6744 19.1279 35.9421 19.2368 36.3242 19.2368H37.0312C37.4133 19.2368 37.681 19.1292 37.8331 18.9129C37.9864 18.6978 38.0631 18.4568 38.0631 18.1911V9.22229C38.0631 8.73122 38.3672 8.48633 38.9754 8.48633C39.5836 8.48633 39.902 8.73122 39.902 9.22229V18.3117C39.902 19.1435 39.6226 19.7641 39.0664 20.1749C38.8 20.3705 38.5258 20.5221 38.245 20.6297C37.963 20.7372 37.6875 20.7916 37.4159 20.7916H35.9408C35.6744 20.7916 35.3989 20.7372 35.1143 20.6297C34.831 20.5221 34.5554 20.3705 34.2903 20.1749C33.7432 19.7758 33.469 19.1539 33.469 18.3117ZM42.3674 18.3117V9.22229C42.3674 8.73122 42.6715 8.48633 43.2797 8.48633C43.888 8.48633 44.2077 8.73122 44.2077 9.22229V18.1911C44.2077 18.4568 44.2843 18.6978 44.4377 18.9129C44.5898 19.1279 44.8575 19.2368 45.2409 19.2368H47.831C48.2131 19.2368 48.4808 19.1292 48.6329 18.9129C48.7862 18.6978 48.8629 18.4568 48.8629 18.1911V9.22229C48.8629 8.73122 49.167 8.48633 49.7752 8.48633C50.3834 8.48633 50.7018 8.73122 50.7018 9.22229V18.3117C50.7018 19.1435 50.4224 19.7641 49.8649 20.1749C49.5985 20.3705 49.3242 20.5221 49.0396 20.6297C48.7563 20.7372 48.4808 20.7916 48.2144 20.7916H44.8549C44.5885 20.7916 44.3129 20.7372 44.0309 20.6297C43.7463 20.5221 43.4682 20.3705 43.1979 20.1749C42.9314 19.9701 42.7261 19.7162 42.5831 19.413C42.4402 19.1098 42.3687 18.7431 42.3687 18.3117H42.3674ZM53.0593 20.1295V9.52937C53.0593 9.10956 53.2452 8.8258 53.6156 8.68198C53.9483 8.55111 54.294 8.48633 54.6553 8.48633H54.693C54.9594 8.48633 55.2297 8.53945 55.5039 8.647C55.7768 8.75583 55.9848 8.95667 56.1251 9.25209L59.4625 17.5912L59.8914 17.5446V9.22229C59.8914 8.73122 60.1955 8.48633 60.8037 8.48633C61.412 8.48633 61.7161 8.73122 61.7161 9.22229V19.838C61.7161 20.1982 61.525 20.4612 61.1442 20.6271H61.1598C60.9935 20.697 60.818 20.7515 60.6348 20.7916C60.4515 20.8318 60.2722 20.8512 60.0968 20.8512C59.9603 20.8512 59.8212 20.8383 59.6783 20.8137C59.5353 20.7877 59.3989 20.7476 59.2715 20.6893C59.1428 20.631 59.0259 20.5545 58.918 20.4599C58.8088 20.3653 58.7231 20.2448 58.6568 20.101L55.3129 11.7774L54.897 11.8241V20.1308C54.897 20.6219 54.589 20.8668 53.9717 20.8668C53.3544 20.8668 53.0593 20.6206 53.0593 20.1308V20.1295ZM64.0736 20.1295V9.22229C64.0736 8.73122 64.3777 8.48633 64.9859 8.48633C65.5941 8.48633 65.9125 8.73122 65.9125 9.22229V20.1295C65.9125 20.6206 65.6032 20.8655 64.9859 20.8655C64.3686 20.8655 64.0736 20.6193 64.0736 20.1295ZM68.3909 20.1606V9.48532C68.3909 9.11474 68.4832 8.86856 68.6703 8.74547C68.8548 8.62367 69.081 8.56277 69.3487 8.56277H73.8545C74.1105 8.56277 74.3834 8.61849 74.6719 8.73122C74.9604 8.84394 75.2385 8.98776 75.5037 9.16398H75.4894C75.7558 9.35963 75.9611 9.61359 76.1067 9.92586C76.2522 10.2394 76.325 10.6009 76.325 11.013V13.7922C76.325 14.6228 76.0469 15.2434 75.4894 15.6555C75.223 15.8498 74.95 15.9988 74.6719 16.1012C74.3925 16.2048 74.1209 16.2567 73.8545 16.2567H71.7218C71.5463 16.2567 71.4099 16.1867 71.315 16.0494C71.2201 15.912 71.1721 15.7228 71.1721 15.4818C71.1721 14.961 71.3878 14.7018 71.8193 14.7018H73.4542C73.8363 14.7018 74.1066 14.5943 74.2651 14.3792C74.4237 14.1641 74.5017 13.9283 74.5017 13.673V11.149C74.5017 10.8937 74.4211 10.6579 74.2599 10.4428C74.1001 10.2278 73.8298 10.1189 73.4529 10.1189H70.2142V20.1632C70.2142 20.6543 69.9049 20.8992 69.2876 20.8992C68.6703 20.8992 68.3909 20.6543 68.3909 20.1632V20.1606ZM78.6825 19.8522V9.48532C78.6825 9.25079 78.7488 9.0383 78.8814 8.84783C79.0152 8.65736 79.2725 8.56277 79.6546 8.56277H85.0259C85.408 8.56277 85.6069 8.81803 85.6225 9.32724V9.39591C85.6225 9.87144 85.4236 10.1111 85.0259 10.1163H80.5059V19.2368H85.2976C85.6797 19.2368 85.8746 19.4894 85.885 19.9948V20.0699C85.885 20.5506 85.6887 20.7916 85.2976 20.7916H79.6546C79.2725 20.7916 79.0152 20.6944 78.8814 20.4975C78.7488 20.3031 78.6825 20.0881 78.6825 19.8522ZM81.8926 14.4219C81.8926 14.0604 82.016 13.7585 82.2617 13.5124C82.5073 13.2675 82.8062 13.1444 83.1571 13.1444C83.508 13.1444 83.8264 13.2675 84.0772 13.5124C84.3281 13.7573 84.4528 14.0604 84.4528 14.4219C84.4528 14.7834 84.3255 15.0853 84.072 15.3315C83.8186 15.5764 83.5132 15.6995 83.1558 15.6995C82.7984 15.6995 82.506 15.5764 82.2604 15.3315C82.0147 15.0866 81.8913 14.7834 81.8913 14.4219H81.8926ZM87.5654 19.8522V9.48532C87.5654 9.25079 87.6317 9.0383 87.7655 8.84783C87.8981 8.65736 88.1554 8.56277 88.5375 8.56277H93.9101C94.2922 8.56277 94.4897 8.81803 94.5053 9.32724V9.39591C94.5053 9.87144 94.3078 10.1111 93.9101 10.1163H89.3887V19.2368H94.1804C94.5625 19.2368 94.7588 19.4894 94.7679 19.9948V20.0699C94.7679 20.5506 94.5716 20.7916 94.1804 20.7916H88.5375C88.1567 20.7916 87.8981 20.6944 87.7655 20.4975C87.6317 20.3031 87.5654 20.0881 87.5654 19.8522ZM90.7754 14.4219C90.7754 14.0604 90.8989 13.7585 91.1458 13.5124C91.3915 13.2675 91.6904 13.1444 92.0413 13.1444C92.3922 13.1444 92.7093 13.2675 92.9601 13.5124C93.2122 13.7573 93.3383 14.0604 93.3383 14.4219C93.3383 14.7834 93.2109 15.0853 92.9562 15.3315C92.7028 15.5764 92.3974 15.6995 92.0413 15.6995C91.6852 15.6995 91.3915 15.5764 91.1458 15.3315C90.8989 15.0866 90.7754 14.7834 90.7754 14.4219ZM96.434 20.1464V9.48532C96.434 9.11474 96.5301 8.86856 96.7199 8.74547C96.9109 8.62367 97.1396 8.56277 97.4061 8.56277H101.896C102.163 8.56277 102.441 8.61849 102.729 8.73122C103.018 8.84394 103.296 8.98776 103.561 9.16398H103.545C103.812 9.35963 104.019 9.61359 104.164 9.92586C104.311 10.2394 104.384 10.6009 104.384 11.013V13.2584C104.384 14.089 104.104 14.707 103.547 15.1126C103.432 15.1929 103.31 15.2693 103.182 15.3419C103.053 15.4145 102.924 15.4883 102.793 15.5622L105.257 19.619C105.287 19.6695 105.318 19.7356 105.351 19.8173C105.383 19.9002 105.4 19.9689 105.4 20.0246C105.4 20.2695 105.225 20.5053 104.872 20.7307V20.7152C104.646 20.8551 104.45 20.9251 104.285 20.9251H104.269C104.034 20.9251 103.843 20.8072 103.698 20.5727L103.713 20.5882L100.797 15.7125H99.6141C99.4387 15.7125 99.3009 15.6425 99.2034 15.5052C99.1047 15.3678 99.0566 15.1812 99.0566 14.9454C99.0566 14.4245 99.2723 14.1615 99.7051 14.1563H101.513C101.895 14.1563 102.163 14.0488 102.315 13.8337C102.468 13.6186 102.545 13.3828 102.545 13.1275V11.1438C102.545 10.8886 102.467 10.6527 102.312 10.4377C102.156 10.2226 101.89 10.1137 101.513 10.1137H98.2586V20.1425C98.2586 20.6335 97.9545 20.8784 97.3463 20.8784C96.7381 20.8784 96.434 20.6335 96.434 20.1425V20.1464Z" fill="white"/>
<path d="M13.7434 10.0291C12.4529 10.0291 11.4041 11.0722 11.4041 12.3601C11.4041 13.648 12.4516 14.6911 13.7434 14.6911C15.0352 14.6911 15.9827 13.7439 16.0736 12.5415L25.8831 6.89614L23.2345 5.37109L14.748 10.2572C14.4439 10.1108 14.1008 10.0304 13.7408 10.0304L13.7434 10.0291Z" fill="url(#paint0_linear_5505_8495)"/>
<path d="M8.23435 19.258V22.3055L13.8981 25.5655L16.5441 24.0418L20.0413 22.0283C20.3468 22.1747 20.6886 22.2563 21.0498 22.2563C22.343 22.2563 23.3891 21.2133 23.3891 19.9253C23.3891 18.6374 22.343 17.5931 21.0498 17.5931C19.7567 17.5931 18.8119 18.5402 18.7196 19.7426L13.8981 22.5193L10.8804 20.7818L25.1488 12.567V22.474L13.8981 28.9499L2.64731 22.4753V9.52342L13.8981 3.0462L16.0333 4.27453L5.58834 10.2892V13.8731C4.97622 14.2929 4.57334 14.9965 4.57334 15.7946C4.57334 17.0813 5.61953 18.1269 6.91265 18.1269C8.20576 18.1269 9.25065 17.0826 9.25065 15.7946C9.25065 14.9978 8.84777 14.2942 8.23565 13.8731V11.8116L21.328 4.27582L18.6806 2.75337L13.8981 0L0 7.99968V23.999L13.8981 32L27.7961 23.999V7.99968L8.23435 19.258Z" fill="url(#paint1_linear_5505_8495)"/>
</g>
<defs>
<linearGradient id="paint0_linear_5505_8495" x1="-0.629014" y1="31.4005" x2="27.0584" y2="-0.692447" gradientUnits="userSpaceOnUse">
<stop stop-color="#4CBCE6"/>
<stop offset="0.18" stop-color="#4FBDDC"/>
<stop offset="0.49" stop-color="#58C1C3"/>
<stop offset="0.87" stop-color="#67C89A"/>
<stop offset="1" stop-color="#6DCB8B"/>
</linearGradient>
<linearGradient id="paint1_linear_5505_8495" x1="0.0324903" y1="31.9754" x2="27.7186" y2="-0.117536" gradientUnits="userSpaceOnUse">
<stop stop-color="#4CBCE6"/>
<stop offset="0.18" stop-color="#4FBDDC"/>
<stop offset="0.49" stop-color="#58C1C3"/>
<stop offset="0.87" stop-color="#67C89A"/>
<stop offset="1" stop-color="#6DCB8B"/>
</linearGradient>
<clipPath id="clip0_5505_8495">
<rect width="105.4" height="32" fill="white"/>
</clipPath>
</defs>
</svg>
